<svg width="109" height="109" viewBox="0 0 109 109" fill="none" xmlns="http://www.w3.org/2000/svg">
<path d="M9.03257 20.8828L9.01562 20.9147L9.03257 20.8884V20.8828Z" fill="#ffffff"/>
<path d="M8.96545 20.9596V20.9355C8.93735 20.9724 8.90646 21.007 8.87305 21.039C8.9174 21.0427 8.92849 20.9799 8.96545 20.9596Z" fill="#ffffff"/>
<path d="M8.75774 21.0547L8.73893 21.0679C8.74834 21.0735 8.722 21.0942 8.75774 21.0547Z" fill="#ffffff"/>
<path d="M8.68603 21.0996C8.67286 21.0996 8.6484 21.1128 8.65028 21.0996C8.63147 21.1241 8.65028 21.126 8.67286 21.126L8.68603 21.0996Z" fill="#ffffff"/>
<path d="M8.69858 21.1211L8.68164 21.1512C8.68164 21.1512 8.70422 21.1625 8.68164 21.1381C8.69858 21.1494 8.69293 21.1362 8.69858 21.1211Z" fill="#ffffff"/>
<path d="M8.7469 21.1269C8.78641 21.0836 8.75819 21.0724 8.7168 21.1137C8.73749 21.1081 8.75819 21.0968 8.7469 21.1269Z" fill="#ffffff"/>
<path d="M8.9205 21.0578V21.0371C8.9205 21.0484 8.88475 21.0653 8.89416 21.0691L8.9205 21.0578Z" fill="#ffffff"/>
<path d="M8.55659 21.2263C8.54154 21.2263 8.51896 21.2394 8.50391 21.2263C8.48886 21.2131 8.5359 21.2394 8.54907 21.247L8.55659 21.2263Z" fill="#ffffff"/>
<path d="M8.54847 21.248L8.53906 21.2838C8.56352 21.2649 8.56164 21.2555 8.54847 21.248Z" fill="#ffffff"/>
<path d="M8.72356 21.1406C8.72356 21.1628 8.71062 21.185 8.70508 21.2071C8.71432 21.1794 8.71986 21.161 8.72356 21.1406Z" fill="#ffffff"/>
<path d="M8.40199 21.3074L8.39258 21.2773L8.40199 21.3263V21.3074Z" fill="#ffffff"/>
<path d="M8.34108 21.3652C8.33 21.3393 8.28934 21.3486 8.28934 21.3301C8.28465 21.3406 8.28223 21.3519 8.28223 21.3634C8.28223 21.3748 8.28465 21.3862 8.28934 21.3966C8.2801 21.3781 8.30413 21.3671 8.34108 21.3652Z" fill="#ffffff"/>
<path d="M8.49326 21.3167C8.47743 21.3111 8.46017 21.3111 8.44434 21.3167L8.48197 21.3318L8.49326 21.3167Z" fill="#ffffff"/>
<path d="M8.62914 21.2441C8.62914 21.2686 8.61409 21.31 8.66301 21.2968C8.64984 21.2742 8.62726 21.2799 8.62914 21.2441Z" fill="#ffffff"/>
<path d="M8.54102 21.3305L8.57301 21.3117C8.57301 21.3117 8.55043 21.3023 8.55043 21.291L8.54102 21.3305Z" fill="#ffffff"/>
<path d="M8.53683 21.3508L8.54059 21.3301L8.5293 21.3376L8.53683 21.3508Z" fill="#ffffff"/>
<path d="M8.35859 21.42C8.3587 21.4289 8.35691 21.4377 8.35334 21.4458C8.34977 21.4539 8.3445 21.4612 8.33789 21.4671C8.35833 21.4599 8.37695 21.4483 8.39245 21.4332C8.39245 21.4332 8.37364 21.4012 8.35859 21.42Z" fill="#ffffff"/>
<path d="M8.21064 21.5954L8.205 21.5898L8.20312 21.5917L8.21064 21.5954Z" fill="#ffffff"/>
<path d="M8.4123 21.4023C8.40731 21.413 8.40027 21.4226 8.3916 21.4305C8.3916 21.4305 8.41606 21.4193 8.4123 21.4023Z" fill="#ffffff"/>
<path d="M8.25802 21.4823H8.29753C8.2806 21.4767 8.2505 21.4729 8.25802 21.4823Z" fill="#ffffff"/>
<path d="M8.40961 21.377C8.40773 21.387 8.40773 21.3972 8.40961 21.4071C8.4112 21.3984 8.4112 21.3895 8.40961 21.3808V21.377Z" fill="#ffffff"/>
<path d="M8.33921 21.6826C8.32627 21.7306 8.3041 21.701 8.27084 21.7029C8.32443 21.7232 8.29486 21.7971 8.36693 21.8415V21.7916C8.37617 21.7916 8.38356 21.823 8.40019 21.8212C8.36693 21.7916 8.35954 21.7362 8.41682 21.738C8.41682 21.6918 8.29301 21.6253 8.20801 21.5957C8.21808 21.6028 8.22576 21.6128 8.23005 21.6243C8.23433 21.6359 8.23503 21.6484 8.23203 21.6604C8.2616 21.6659 8.32997 21.6382 8.33921 21.6826Z" fill="#ffffff"/>
<path d="M8.25996 21.5462V21.5332C8.23387 21.5397 8.20659 21.5397 8.1805 21.5332C8.17894 21.5426 8.17963 21.5521 8.18252 21.5611C8.18542 21.5701 8.19043 21.5783 8.19713 21.585L8.25996 21.5462Z" fill="#ffffff"/>
<path d="M8.38225 21.5877C8.40812 21.5545 8.38225 21.5434 8.38225 21.5157C8.3416 21.5692 8.38225 21.4861 8.32312 21.5157C8.32663 21.5033 8.33295 21.4919 8.3416 21.4824L8.30095 21.4953L8.26953 21.5563C8.28616 21.5563 8.29725 21.536 8.31758 21.512C8.33975 21.5304 8.33051 21.5674 8.38225 21.5877Z" fill="#ffffff"/>
<path d="M8.66662 21.3475C8.68325 21.3475 8.67771 21.3567 8.68694 21.3623C8.69618 21.3678 8.68694 21.3234 8.65923 21.3364C8.63168 21.3458 8.60177 21.3458 8.57422 21.3364C8.60147 21.3499 8.63085 21.3587 8.66107 21.3623C8.66107 21.3623 8.64999 21.3567 8.66662 21.3475Z" fill="#ffffff"/>
<path d="M8.52486 21.5038L8.50793 21.4906C8.53615 21.4718 8.50793 21.4624 8.50793 21.4492L8.48535 21.5038H8.52486Z" fill="#ffffff"/>
<path d="M8.17877 21.5839L8.14551 21.5488L8.17693 21.6135L8.17877 21.5839Z" fill="#ffffff"/>
<path d="M8.13153 21.6375L8.09766 21.6074L8.1033 21.6375H8.13153Z" fill="#ffffff"/>
<path d="M7.89598 21.8242L7.88281 21.8411C7.89008 21.8353 7.89837 21.8308 7.90727 21.828L7.89598 21.8242Z" fill="#ffffff"/>
<path d="M8.0181 21.7217C8.00682 21.7217 7.98612 21.7048 7.99176 21.6973L7.98047 21.7293C7.98988 21.7161 8.00493 21.7199 8.0181 21.7217Z" fill="#ffffff"/>
<path d="M8.46564 21.6792L8.44682 21.666C8.43365 21.6829 8.44682 21.7055 8.46187 21.6942C8.47692 21.6829 8.46564 21.6867 8.46564 21.6792Z" fill="#ffffff"/>
<path d="M8.16602 21.7967C8.20741 21.8249 8.20741 21.7967 8.21682 21.776C8.16602 21.7308 8.16602 21.7722 8.16602 21.7967Z" fill="#ffffff"/>
<path d="M8.23282 21.7539C8.214 21.7351 8.22153 21.7539 8.21777 21.7709C8.22069 21.7637 8.22601 21.7577 8.23282 21.7539Z" fill="#ffffff"/>
<path d="M7.89416 21.8866C7.91263 21.8866 7.84611 21.8386 7.86644 21.8478C7.82209 21.7979 7.87752 21.9569 7.89416 21.8866Z" fill="#ffffff"/>
<path d="M8.28108 21.891L8.30366 21.8797L8.25098 21.8496L8.28108 21.891Z" fill="#ffffff"/>
<path d="M1.40418 64.9753C1.39125 64.9476 1.3857 64.9125 1.37277 64.8867C1.37091 64.9029 1.37278 64.9193 1.37822 64.9346C1.38366 64.95 1.39254 64.9639 1.40418 64.9753Z" fill="#ffffff"/>
<path d="M1.95898 65.2539C1.97191 65.2853 1.9867 65.3168 1.99963 65.35C2.00126 65.3319 1.9984 65.3137 1.99131 65.2969C1.98422 65.2801 1.97312 65.2654 1.95898 65.2539Z" fill="#ffffff"/>
<path d="M83.2295 5.625C83.2473 5.63177 83.2655 5.63742 83.2841 5.64194L83.2295 5.625Z" fill="#ffffff"/>
<path d="M83.1357 5.59961L83.1808 5.61466C83.1665 5.60775 83.1513 5.60269 83.1357 5.59961Z" fill="#ffffff"/>
<path d="M88.204 9.22579C88.1523 9.20361 88.2041 9.0872 88.1338 9.18513C88.1505 9.20546 88.1874 9.20546 88.204 9.22579Z" fill="#ffffff"/>
<path d="M88.7331 9.4043C88.7331 9.4043 88.6647 9.49114 88.6887 9.49664L88.7331 9.4043Z" fill="#ffffff"/>
<path d="M89.1928 9.94531L89.1836 10.0211C89.1906 10.018 89.1968 10.0131 89.2014 10.0069C89.206 10.0008 89.2089 9.99351 89.2098 9.98591C89.2107 9.97821 89.2097 9.97041 89.2067 9.96331C89.2037 9.95621 89.1989 9.95001 89.1928 9.94531Z" fill="#ffffff"/>
<path d="M91.6455 12.2246C91.6732 12.3133 91.7323 12.1747 91.7489 12.2634C91.8044 12.1858 91.7619 12.11 91.6455 12.2246Z" fill="#ffffff"/>
<path d="M92.5557 12.7063C92.5557 12.7507 92.6702 12.6232 92.6813 12.625L92.5557 12.7063Z" fill="#ffffff"/>
<path d="M3.91219 28.2903C3.91219 28.2478 3.99719 28.2127 4.01013 28.1443C4.02491 28.1351 4.01013 28.1591 4.02306 28.1554C4.036 28.1517 4.02306 28.1185 4.05632 28.0889C4.10848 28.0115 4.17061 27.9413 4.24111 27.8801H4.2097C4.22257 27.8685 4.23766 27.8597 4.25405 27.8542C4.23372 27.8099 4.20785 27.9115 4.18198 27.869C4.25589 27.869 4.28546 27.7175 4.36677 27.7378C4.39264 27.7064 4.32427 27.7267 4.34829 27.6953H4.37416L4.35383 27.6731C4.36465 27.6664 4.37713 27.6629 4.38986 27.6629C4.4026 27.6629 4.41508 27.6664 4.4259 27.6731C4.4259 27.6731 4.4259 27.6898 4.4259 27.6971C4.47209 27.6842 4.47579 27.6177 4.49057 27.6121L4.45362 27.6343C4.49797 27.5364 4.61069 27.4495 4.61808 27.335H4.59221C4.59221 27.2463 4.65319 27.2962 4.68645 27.2149C4.67894 27.2047 4.6749 27.1924 4.6749 27.1797C4.6749 27.1671 4.67894 27.1548 4.68645 27.1446C4.70123 27.1779 4.76406 27.1446 4.77699 27.1816C4.77699 27.0855 4.76591 27.1262 4.70862 27.0264L4.75667 27.0393C4.7308 27.0023 4.71232 26.9894 4.72525 26.9469C4.74004 26.9968 4.80286 26.9617 4.82689 27.0208C4.97472 27.0042 4.81026 26.8545 4.97472 26.9044C4.87678 26.7972 4.86015 26.9284 4.84906 26.8933C4.79917 26.8933 4.77699 26.8102 4.80656 26.7935C4.83613 26.7769 4.99135 26.8471 5.03385 26.7935C5.03385 26.7935 5.03385 26.8065 5.03385 26.8102C5.08189 26.8102 5.02091 26.7418 5.09483 26.7473C5.0283 26.6845 5.12624 26.7141 5.0283 26.6476L5.01167 26.7178C5.01167 26.6716 4.91004 26.5681 5.00243 26.5515C5.02145 26.5709 5.03596 26.5942 5.04493 26.6198C5.08559 26.6198 5.04493 26.5792 5.08744 26.5829C5.18722 26.6512 5.06157 26.6623 5.11515 26.7436C5.16874 26.7436 5.08744 26.6365 5.18537 26.7196C5.06157 26.6087 5.2482 26.6753 5.16689 26.5662L5.22787 26.6087C5.22787 26.5958 5.20385 26.5644 5.21309 26.5533L5.27961 26.6272C5.23342 26.5496 5.38864 26.6051 5.37386 26.5496C5.32581 26.6143 5.28516 26.5145 5.21863 26.5127C5.18907 26.3778 5.42005 26.5736 5.45886 26.4683C5.45886 26.4849 5.3831 26.4868 5.36831 26.448C5.40518 26.4377 5.44417 26.4377 5.48103 26.448C5.51245 26.3815 5.40527 26.4129 5.38309 26.3611C5.47918 26.3944 5.37201 26.3112 5.36462 26.2687L5.43299 26.3131C5.52908 26.2743 5.30364 26.2022 5.40157 26.1745L5.47918 26.2632V26.2059L5.55495 26.2632C5.52169 26.1911 5.54386 26.1911 5.5919 26.1727C5.53647 26.1468 5.46625 26.084 5.48658 26.0507C5.54386 26.0507 5.54571 26.108 5.56603 26.0507C5.60484 26.0913 5.65288 26.1375 5.56603 26.1117C5.58821 26.1302 5.60299 26.1505 5.62517 26.169C5.68984 26.169 5.67875 26.1228 5.68799 26.1061C5.68333 26.1082 5.6783 26.1092 5.67321 26.1092C5.66812 26.1092 5.66309 26.1082 5.65843 26.1061L5.60484 25.9786C5.63224 25.9878 5.65569 26.0061 5.67136 26.0304C5.67136 26.0137 5.64549 25.9823 5.65288 25.9601C5.70832 26.0045 5.77115 26.0451 5.77854 26.0877L5.75636 25.9879C5.78593 26.0008 5.85061 26.0063 5.86724 26.0285C5.92822 26.0285 5.8118 25.8733 5.89126 25.8622C5.88122 25.8522 5.87473 25.8393 5.87278 25.8253C5.91713 25.7957 6.01876 25.8123 5.97072 25.707L6.10192 25.7569C6.10192 25.7033 5.93561 25.6977 5.9393 25.6072C5.943 25.5167 6.04648 25.6552 6.08898 25.6626C6.05018 25.6017 5.96333 25.4779 6.08898 25.5074C6.08898 25.5351 6.0742 25.5333 6.0742 25.5518L6.1592 25.5647C6.23312 25.6737 6.17768 25.6756 6.2867 25.707C6.07235 25.5518 6.35692 25.5758 6.14257 25.4187L6.20355 25.4317C6.20355 25.4317 6.20355 25.4446 6.20355 25.4501C6.33844 25.4852 6.06681 25.3097 6.13703 25.2801C6.15335 25.2768 6.17028 25.2784 6.18572 25.2846C6.20116 25.2909 6.21443 25.3015 6.22388 25.3152L6.19985 25.2376C6.21279 25.2376 6.2479 25.2598 6.23496 25.2672L6.26268 25.1951C6.23178 25.158 6.20397 25.1185 6.17953 25.0769C6.22203 25.0769 6.19616 25.1009 6.22757 25.1175L6.19801 25.0455C6.26638 25.0732 6.30149 25.1415 6.27562 25.1582C6.51954 25.2857 6.24051 25.0898 6.41975 25.1157V25.1674C6.56019 25.2395 6.53247 25.1822 6.6378 25.2025C6.58975 25.1822 6.38649 25.1305 6.35877 25.0547C6.38279 25.0547 6.40127 25.0547 6.36986 24.9974C6.44932 25.0547 6.44562 25.0214 6.45856 24.9974L6.56204 25.075C6.55095 25.0288 6.49551 24.9919 6.4604 24.942C6.49182 24.9216 6.57867 24.9752 6.64519 25.0177C6.69693 24.9845 6.49182 24.9531 6.51399 24.8847C6.58236 24.8847 6.55834 24.8182 6.53062 24.7258C6.58606 24.7258 6.5916 24.7794 6.62856 24.7904L6.56204 24.7054C6.56204 24.7054 6.59345 24.7221 6.60638 24.7332C6.58791 24.6888 6.5029 24.6537 6.49736 24.6001C6.38834 24.5059 6.71356 24.6611 6.61193 24.5244C6.64889 24.5373 6.67291 24.5761 6.71541 24.6038C6.6912 24.5242 6.65371 24.4492 6.60454 24.3821L6.70063 24.395C6.60451 24.3482 6.52796 24.269 6.48442 24.1714C6.44008 24.1529 6.40127 24.1363 6.38094 24.1308L6.36247 24.0384C6.3976 24.0586 6.42838 24.0856 6.45301 24.1178L6.43453 24.0901C6.49625 24.1153 6.54947 24.1576 6.58791 24.2121L6.51029 24.1825C6.56523 24.2449 6.62724 24.3007 6.69508 24.3488C6.6866 24.3382 6.68145 24.3254 6.6803 24.3118C6.71171 24.3488 6.74682 24.371 6.69139 24.3118L6.81519 24.3876L6.80226 24.358H6.92237C6.83922 24.225 6.70063 24.055 6.70987 23.946C6.77994 24.0157 6.85739 24.0777 6.94085 24.1308C6.82074 24.0698 6.94085 24.2213 6.8928 24.2435C6.91868 24.2324 6.96302 24.273 6.97596 24.2897L6.93161 24.1492C7.01107 24.2121 7.00183 24.1806 7.04803 24.188C6.87987 24.0809 6.97965 24.0568 6.95194 23.9922C7.00552 24.031 7.05542 24.079 7.01846 24.103C7.16444 24.1585 6.86693 23.9183 6.99629 23.9534C6.99629 23.9534 6.97965 23.9534 6.99629 23.9848C6.96487 23.9293 7.03694 23.9109 7.0739 23.9589C7.09601 23.9434 7.11406 23.9228 7.12652 23.8988C7.13898 23.8749 7.14549 23.8482 7.14549 23.8212C7.14549 23.7942 7.13898 23.7676 7.12652 23.7437C7.11406 23.7197 7.09601 23.6991 7.0739 23.6836C7.09053 23.6965 7.22727 23.8148 7.25868 23.8388L6.88911 23.399C6.99444 23.4951 7.28455 23.6688 7.31412 23.7686C7.33999 23.7686 7.36956 23.7686 7.35108 23.7076C7.28265 23.6776 7.22008 23.6357 7.16629 23.5838C7.23589 23.6159 7.3091 23.6394 7.38434 23.654C7.35108 23.654 7.18846 23.4988 7.21064 23.4822C7.23466 23.5062 7.38249 23.6134 7.39542 23.6355L7.26423 23.4507C7.32102 23.5087 7.38806 23.5557 7.46196 23.5893C7.425 23.569 7.49707 23.5468 7.49152 23.5191H7.43608C7.50445 23.4785 7.25129 23.277 7.30118 23.2253C7.3289 23.2604 7.48597 23.4101 7.53771 23.3935C7.39418 23.2521 7.26992 23.0924 7.16814 22.9186L7.22357 22.9463L7.2014 22.865C7.30303 22.9851 7.50999 23.2586 7.58576 23.3787C7.63934 23.3787 7.64674 23.4175 7.66521 23.3787C7.68228 23.3842 7.69686 23.3955 7.70634 23.4108C7.71581 23.426 7.71957 23.4441 7.71695 23.4618L7.79826 23.4045C7.70032 23.3325 7.74467 23.2678 7.66337 23.2087L7.70218 23.3731C7.6024 23.2992 7.46564 23.1089 7.51738 23.0682C7.56543 23.083 7.67631 23.2105 7.70218 23.2345C7.67446 23.2031 7.67816 23.1329 7.70218 23.1458L7.73543 23.2087C7.79087 23.2087 7.64858 23.0608 7.76315 23.0941C7.77793 23.0941 7.9073 23.1477 7.85555 23.1033C7.67276 22.9909 7.50133 22.8609 7.34368 22.7153C7.41641 22.7209 7.4883 22.7345 7.55804 22.7559C7.65228 22.7984 7.72435 22.9407 7.8075 22.9758C7.7862 22.9564 7.76866 22.9332 7.75576 22.9075C7.78533 22.9075 7.82598 22.9721 7.83707 22.9352C7.75022 22.8576 7.88697 22.8816 7.77055 22.8594C7.77055 22.8114 7.8112 22.8446 7.83152 22.8077C7.75159 22.7508 7.69097 22.6709 7.65782 22.5785C7.67942 22.5955 7.703 22.6098 7.72804 22.621C7.77978 22.5712 7.84261 22.5712 7.88511 22.5176C7.90913 22.5287 7.95163 22.5176 7.97935 22.5619C7.97935 22.5416 7.94794 22.512 7.95718 22.4935C8.05142 22.5176 7.94239 22.5397 8.04403 22.5822C7.99783 22.5434 8.01077 22.488 7.99968 22.44C7.92207 22.3901 7.94424 22.4843 7.95533 22.5323C7.90782 22.4974 7.86793 22.4532 7.83807 22.4024C7.80821 22.3516 7.789 22.2952 7.78163 22.2367C7.79641 22.1757 7.86109 22.27 7.8537 22.2515C7.9387 22.1831 7.74837 22.0519 7.87587 22.0427C7.95718 22.063 7.99229 22.1332 8.04033 22.1609C8.04033 22.2145 7.95718 22.1849 7.94055 22.2108H7.99229C8.00337 22.2385 7.99229 22.2736 7.97196 22.2736C8.04403 22.294 8.09392 22.1424 8.19001 22.1166C8.19001 22.0907 8.17707 22.0556 8.14751 22.0464V22.0722C8.08838 22.0556 8.11794 21.9872 8.07544 21.9965C8.07544 21.9447 8.04772 21.8801 8.10501 21.8634L8.16968 21.9041C8.1512 21.8911 8.1124 21.9041 8.12164 21.9244C8.11055 21.8874 8.25099 21.9244 8.18816 21.8542H8.12533C8.12533 21.8043 8.09023 21.7267 8.13828 21.7119C8.06991 21.6805 8.13827 21.723 8.05142 21.6934C8.1512 21.7396 7.96642 21.7655 8.08468 21.8061C7.98305 21.7655 8.01261 21.8172 7.91468 21.7914C7.935 21.8061 7.96273 21.8117 7.92762 21.8283C7.93202 21.8347 7.93572 21.8415 7.9387 21.8486C7.95418 21.8486 7.96944 21.8524 7.98306 21.8597C8.01632 21.9096 7.98306 21.9503 7.98306 21.9835C7.95903 21.9835 7.96457 21.9577 7.935 21.9484L7.95163 21.9983C7.90359 21.9632 7.83338 21.9761 7.84262 21.9189L7.80565 21.9503C7.75946 21.9503 7.72065 21.9632 7.72619 21.9946C7.70032 21.9946 7.74282 22.0778 7.71695 22.0334L7.69663 22.1092L7.68369 22.0981C7.62641 22.1424 7.67076 22.2829 7.51738 22.2533C7.51738 22.281 7.51738 22.3125 7.47119 22.3291L7.4176 22.2958C7.4176 22.3309 7.30303 22.3217 7.34553 22.3716C7.18662 22.2884 7.21064 22.4529 7.14966 22.4732L7.21618 22.5287C7.18662 22.5508 7.18107 22.5933 7.17738 22.6488L7.24205 22.695C7.26607 22.7652 7.12933 22.7356 7.09422 22.7874C7.07205 22.7652 7.09422 22.7578 7.11085 22.7615C6.92607 22.7042 7.11085 22.9611 6.96118 22.9296C6.97411 22.9611 6.96118 22.9629 6.93346 22.9592L6.88356 22.9481C6.89886 22.9548 6.91505 22.9591 6.93161 22.9611C6.92499 22.9802 6.92499 23.001 6.93161 23.0202L6.85585 22.9721C6.81704 22.9721 6.87987 23.0109 6.94085 23.0442C6.94677 23.0633 6.95549 23.0813 6.96672 23.0978C6.84106 23.0202 6.96672 23.168 6.83552 23.0867C6.88726 23.144 6.81704 23.1957 6.939 23.3048C6.92237 23.2918 6.91128 23.29 6.91683 23.2807C6.88726 23.2807 6.85954 23.2918 6.88356 23.3343L6.78563 23.2696L6.87987 23.4027C6.84528 23.3961 6.81247 23.3823 6.78351 23.3622C6.75456 23.3422 6.7301 23.3163 6.71171 23.2863C6.77824 23.4249 6.71171 23.362 6.79117 23.4932L6.73204 23.4433C6.72095 23.4618 6.78193 23.5505 6.73204 23.521C6.58606 23.4674 6.57128 23.6873 6.38649 23.7057C6.58791 23.8296 6.26822 23.6854 6.41051 23.8C6.36247 23.7704 6.32736 23.7649 6.29964 23.7205C6.29964 23.8018 6.17213 23.739 6.27007 23.8665C6.22018 23.8369 6.21279 23.8055 6.18137 23.7907C6.22388 23.8684 6.13518 23.7907 6.13333 23.763C6.10192 23.8185 6.23496 23.9275 6.36062 24.0291C6.28116 24.0069 6.27931 24.0291 6.35138 24.1086C6.30149 24.0846 6.24605 24.0661 6.25529 24.0236C6.23496 24.0365 6.11116 24.0827 6.21464 24.1622C6.18322 24.1492 6.18692 24.1806 6.19616 24.1954C6.16105 24.2305 6.14811 24.2268 6.12963 24.273H6.1555C6.27007 24.3821 6.1555 24.3266 6.1555 24.3673H6.14257C6.00028 24.3673 6.16474 24.4301 6.00768 24.4246L6.08898 24.4782C6.25344 24.6094 5.943 24.4671 5.97811 24.5558L6.03355 24.5742C6.07605 24.6389 5.75821 24.4689 5.72126 24.4763C5.6843 24.4837 5.70278 24.4523 5.69723 24.4375C5.55495 24.4246 5.79517 24.5188 5.78593 24.5816C5.72495 24.5484 5.65288 24.4689 5.62147 24.4911C5.56603 24.4745 5.73973 24.7091 5.60669 24.6759C5.65473 24.6981 5.70278 24.7184 5.72126 24.7627C5.73973 24.8071 5.50136 24.735 5.61408 24.8588C5.60098 24.8552 5.58852 24.8496 5.57712 24.8422C5.5956 24.8902 5.57712 24.9623 5.6418 25.027C5.36092 24.8607 5.66582 25.269 5.4219 25.0972L5.38679 25.184L5.36277 25.1637C5.31472 25.2025 5.36277 25.2617 5.40896 25.3171C5.38494 25.3171 5.36831 25.2949 5.35538 25.2838C5.26114 25.3226 5.26853 25.3393 5.35538 25.4797L5.27407 25.4335C5.30733 25.4797 5.08928 25.4575 5.13178 25.5887C5.1212 25.5802 5.11187 25.5703 5.10407 25.5592C5.14102 25.6959 4.78623 25.6201 5.0357 25.8271L5.06896 25.9232C5.13178 25.8678 5.17613 26.0082 5.23896 26.0082C5.23896 26.0451 5.11515 26.0248 5.12255 25.9842H5.13918C5.00983 25.8825 5.03754 26.0378 4.95439 25.9842C4.88047 26.1228 4.73634 26.2152 4.66427 26.3537L4.76775 26.3981L4.73819 26.4406C4.70862 26.4406 4.65503 26.411 4.67721 26.3815C4.61438 26.3648 4.69199 26.4646 4.71232 26.4776C4.64025 26.5182 4.61623 26.3852 4.60329 26.4036V26.4351H4.61623C4.64395 26.4812 4.68275 26.5071 4.65688 26.5441C4.63101 26.581 4.59405 26.5219 4.58666 26.5293C4.57927 26.5367 4.57558 26.5293 4.57558 26.5441L4.54047 26.5977L4.58482 26.5755C4.60514 26.6217 4.55155 26.6272 4.64579 26.6476C4.50166 26.6124 4.49427 26.8323 4.44622 26.8434C4.45762 26.866 4.46196 26.8914 4.45866 26.9165C4.45536 26.9416 4.44459 26.965 4.42775 26.9839C4.44622 26.9839 4.51829 27.0134 4.48873 27.0448C4.35937 26.9525 4.39448 27.08 4.28546 27.0578C4.36122 27.0578 4.2522 27.1779 4.35753 27.1834C4.33166 27.2093 4.30948 27.1576 4.26883 27.1668C4.27992 27.2703 4.17089 27.3257 4.14872 27.4329C4.16165 27.4329 4.18937 27.4329 4.19861 27.468L4.11361 27.4846C4.11361 27.5087 4.18013 27.5419 4.12285 27.5549C4.13578 27.5549 4.15426 27.5549 4.15241 27.5715C4.03045 27.7378 4.01752 27.9706 3.91034 28.1499C3.92513 28.1259 3.92143 28.1499 3.91034 28.1647C3.91034 28.1536 3.91958 28.1647 3.92513 28.1647C3.91072 28.1898 3.89777 28.2157 3.88632 28.2423C3.88112 28.2767 3.87309 28.3107 3.8623 28.3439L3.87154 28.318C3.85675 28.355 3.89926 28.2792 3.91219 28.2903ZM7.81489 21.9743C7.79272 21.978 7.77793 21.978 7.81489 21.9743ZM6.71541 24.2342C6.73574 24.262 6.71541 24.262 6.67845 24.2509C6.67845 24.2379 6.68769 24.2305 6.71541 24.2342ZM6.38094 25.0769C6.39018 25.0972 6.42714 25.1526 6.38094 25.1249C6.29409 25.0491 6.34214 25.0732 6.38094 25.0769ZM4.55895 26.5034H4.58482C4.58482 26.5348 4.57373 26.5182 4.55895 26.5034Z" fill="#ffffff"/>
<path d="M105.384 34.631C105.143 34.3083 104.998 33.9239 104.967 33.5223C104.967 33.5223 104.967 33.5352 104.967 33.5389C104.668 32.7997 104.352 32.0686 104.021 31.3455C104.021 31.3455 104.054 31.3602 104.063 31.3676C104.026 31.2826 103.989 31.1976 103.958 31.1108C103.958 31.1311 103.945 31.1551 103.941 31.1755C103.019 29.1913 101.974 27.2664 100.813 25.412C100.543 25.1173 100.325 24.7793 100.168 24.4123C100.048 24.2275 99.9195 24.0427 99.7975 23.869C99.1105 23.359 98.8278 22.5089 98.2549 21.8899C97.0575 20.8034 95.9783 19.5634 95.2355 18.1443C94.8693 17.8941 94.5176 17.6233 94.1822 17.3331C94.0207 17.2262 93.8535 17.1281 93.6814 17.0393C93.5692 16.9758 93.4721 16.8888 93.3968 16.7841C93.3215 16.6795 93.2698 16.5597 93.2453 16.4332C92.0775 15.3632 90.3479 13.2326 90.5105 13.3823C90.2998 13.1975 90.0855 13.022 89.873 12.8446C88.877 12.2754 88.0787 11.4199 87.0642 10.8858C86.9612 10.8345 86.8696 10.7629 86.795 10.6752C86.7204 10.5876 86.6642 10.4857 86.63 10.3758C86.4452 10.2354 86.2604 10.0876 86.0756 9.93785C85.7393 9.59595 85.2773 9.51285 84.8431 9.38348C83.9968 9.06565 83.4904 8.2341 82.8104 7.73333C82.718 7.70561 82.6552 7.70007 82.6256 7.73333L82.4187 7.61137C82.2403 7.40152 82.0388 7.21246 81.8181 7.04777C81.3465 6.88039 80.9001 6.6491 80.4913 6.36036C80.155 6.18482 79.8187 6.00742 79.4695 5.85959L79.3198 5.80046C79.3862 5.86841 79.4405 5.94714 79.4806 6.03329C79.1516 5.86883 78.8153 5.721 78.4827 5.56578C78.4475 5.55277 78.4135 5.5367 78.3811 5.51774C78.2691 5.54539 78.1511 5.53497 78.0457 5.48812C77.9403 5.44128 77.8535 5.36068 77.799 5.25903C77.1171 4.95044 76.4334 4.64739 75.7368 4.36651C75.6627 4.35254 75.5923 4.32362 75.5298 4.28151C75.2138 4.15586 74.9052 4.01911 74.5892 3.899C74.3047 3.60889 74.1883 3.41486 75.2101 3.67911L73.6635 3.05083C72.8356 2.52419 71.6308 2.01417 70.7069 1.89776C69.9677 1.60025 68.6742 1.76841 69.4134 1.66308C68.9828 1.58362 68.5541 1.49677 68.1199 1.42655L66.8263 1.24176V1.14568C65.5809 0.803824 64.2393 0.763174 62.883 0.591314C61.8023 0.522864 60.7293 0.364006 59.6751 0.116416C59.2039 0.051741 58.6551 0.18294 58.219 0C53.7619 0.103481 49.534 0.144134 45.1675 1.04404C43.3473 1.41362 39.3097 2.55745 39.2007 2.51125C38.6888 2.66647 30.427 5.96307 25.0201 9.42965C22.969 11.1131 21.5812 11.6268 20.1122 13.1643C19.9219 13.423 19.07 14.0106 19.0404 14.1954C18.8076 14.358 18.5748 14.5188 18.3512 14.6925C18.1882 14.8352 18.0339 14.9876 17.8892 15.1489C17.722 15.3276 17.574 15.5233 17.4476 15.7328L17.394 15.718C17.0004 16.1597 16.6123 16.5976 16.2261 17.043L16.1374 17.2758L15.9231 17.3903C14.2323 19.2733 12.8168 21.439 10.7878 22.9931C10.3942 23.4255 9.97292 23.9595 9.67912 24.3716C9.20609 25.0627 8.76999 25.739 8.28585 26.4745C7.04038 28.5404 6.17927 30.4529 5.05392 32.3304C5.69144 32.1456 5.37176 32.5577 4.99664 33.0806C4.62152 33.6036 4.19836 34.2559 4.53282 34.4758C4.21868 34.6236 3.86944 35.1428 3.93411 34.4111C3.8602 34.6809 3.77889 34.9285 3.69574 35.1613C3.2966 36.525 2.44103 37.6522 2.66278 39.1176C2.36158 39.3024 2.45582 38.5632 2.25809 38.748C2.25809 38.9328 2.25809 39.4872 2.06407 39.672C1.87004 39.8568 1.7795 42.6526 1.72221 43.0222C1.69615 43.5058 1.76263 43.99 1.91809 44.4487C1.62797 44.7943 1.30829 45.8087 1.4746 44.4191C1.3896 44.7776 1.17339 45.7127 1.05698 46.2448C0.918392 47.0616 0.598712 49.2291 0.999702 49.2679C0.842632 49.4989 0.875892 50.3545 0.923932 50.5615C0.768712 52.0398 0 52.7937 0 54.4143L0.101632 53.9375C0.430552 54.2831 0.441642 54.636 0.425012 55.0795C0.358496 55.6312 0.337482 56.1874 0.362182 56.7426L0.291963 56.7056C0.160764 57.8273 0.145981 58.2375 0.291963 58.9748C0.374882 59.3945 0.397284 59.8238 0.358486 60.2498C0.358486 60.5085 0.349247 60.8264 0.330768 61.2255L0.720672 61.0056C1.18079 61.0999 1.13644 61.7928 1.04959 62.6946C0.996002 63.5575 1.61504 64.4112 1.95504 65.2428C1.84048 65.1264 1.50232 65.082 1.40068 64.9638C1.81091 65.9413 1.49123 67.7097 1.67047 68.6503C1.65938 68.8849 1.44873 68.3472 1.32122 68.0589C1.53003 70.7735 1.93841 68.2567 2.59441 70.1193C2.50386 70.3355 2.2932 70.2764 2.14537 70.3263C1.88667 70.4334 2.34125 70.9305 2.44288 71.313C2.13059 71.4368 2.61289 72.3885 3.1654 73.3716C3.63125 74.0851 4.00853 74.8527 4.2889 75.6574C4.37507 75.8932 4.43698 76.1371 4.47369 76.3854C4.51434 75.9272 4.56054 75.4837 5.09088 76.245C5.34773 76.731 5.52513 77.4498 5.68959 78.0374C6.03884 79.0297 6.29199 80.2235 7.21039 80.8203C7.2455 81.0051 7.22702 81.092 7.18267 81.1252C7.87747 81.9956 9.07119 83.7862 9.91562 84.2666C9.57382 85.2423 11.0521 86.7132 11.7765 87.456C12.2643 87.9346 12.7817 88.4556 13.1901 88.9342C13.5356 89.3481 13.6761 89.6846 13.4229 89.8971C14.0493 90.6159 15.0102 91.599 15.6995 92.279L15.5424 92.3104C16.3185 93.2343 17.4088 94.0954 18.499 94.4077C18.8039 94.7921 18.4547 94.6535 18.3789 94.6775C19.4507 95.7862 20.042 96.3905 20.7146 96.8099C21.5178 97.3147 22.3766 97.7251 23.2739 98.0331L23.2425 98.5359C24.22 99.0902 25.3657 100.263 26.3839 100.951C27.3521 101.586 28.3759 102.231 29.4938 102.573C29.4458 102.603 29.3515 102.649 29.1095 102.592C31.3121 103.384 32.6204 104.316 34.8674 105.149C35.5678 105.384 37.2586 105.949 38.0957 105.988L38.3821 106.173C38.7517 106.219 39.1526 106.43 40.0729 106.67C40.0729 106.67 42.6248 107.304 43.9867 107.477C44.6876 107.6 45.3849 107.727 46.0785 107.858C47.1114 108.022 48.1721 108.183 49.2069 108.327C50.0754 108.42 50.9402 108.527 51.8069 108.617L54.3939 108.787C56.4335 108.869 58.4763 108.815 60.5085 108.623C60.2793 108.438 60.0558 108.253 59.8322 108.069C60.4475 108.022 61.0591 107.943 61.68 107.884C62.1808 107.969 62.3988 108.29 61.0721 108.438C61.534 108.606 62.2713 108.338 62.7592 108.078C62.907 107.995 63.2285 107.786 63.2526 107.693C65.8396 107.494 62.4284 108.573 63.1565 108.475L64.2264 108.237L63.9695 108.207C64.6052 107.884 64.8177 107.642 65.4645 107.468C65.7673 107.369 66.0759 107.289 66.3884 107.228C67.3992 107.124 66.9816 107.49 67.3752 107.424C67.3844 107.468 67.5211 107.459 67.9776 107.304C68.7444 107.119 69.5039 106.914 70.2671 106.72L69.223 106.498C69.6296 106.297 70.0502 106.125 70.4814 105.984C70.8639 105.814 70.5184 105.766 70.1433 105.676C70.8399 105.794 71.459 105.6 72.2073 105.437C73.985 105.007 76.0472 104.055 77.738 103.266C78.2185 103.055 78.8578 102.682 79.2958 102.573C79.5749 102.331 79.8667 102.103 80.1698 101.891C81.1289 101.152 82.0787 100.679 83.18 99.9934C82.7531 100.143 82.2413 99.8094 83.5496 99.0514C83.666 99.8074 84.5918 99.2491 85.0999 98.9664C85.6949 98.6227 86.362 98.1922 87.0236 97.963C87.1781 97.9008 87.3393 97.8568 87.504 97.8318C87.1344 97.8318 87.9013 97.1906 88.6016 96.566C88.986 96.226 90.1483 95.145 89.0747 95.4573C90.0966 94.696 89.4129 95.7382 90.3257 95.3076C91.1406 94.3923 92.0114 93.5283 92.933 92.7206C94.1656 91.5694 95.4221 90.4126 96.5438 89.1394C96.9134 88.6867 97.2829 88.2155 97.6266 87.7424C97.5416 87.6039 96.9688 87.955 97.2885 87.1881C97.9075 86.8333 98.4785 86.4285 99.0772 86.0331C99.3562 85.5304 99.0458 85.1591 99.3729 84.7046C99.5205 84.4749 99.7115 84.276 99.9345 84.1188C99.7225 84.2112 99.408 84.3442 99.6355 83.8989C99.9915 83.4517 100.347 82.9749 100.685 82.5167C101.658 81.0588 102.523 79.5315 103.272 77.9469C103.999 76.3392 104.647 74.6854 105.248 73.0242C105.445 72.4125 105.824 71.2779 106.035 70.6737C106.316 69.7867 106.589 68.8572 106.902 67.9739C107.383 66.3798 107.904 64.7987 108.463 63.2305C107.994 64.1895 108.093 63.5132 108.21 62.7463C108.136 62.9754 108.049 62.9718 107.955 62.9126C108.099 62.1205 108.222 61.3198 108.324 60.5104C108.408 60.2388 108.489 59.969 108.563 59.7029C108.511 59.642 108.473 59.5708 108.452 59.4941C108.608 58.1279 108.713 56.7475 108.766 55.353L108.805 54.6637C108.972 47.8277 107.81 41.0244 105.384 34.631ZM14.5797 85.0538C14.5298 85.2552 14.5058 84.3239 14.2101 84.7896C14.0512 84.9448 13.5948 83.9377 13.9292 84.3054C13.9181 84.1077 13.9884 84.675 14.2748 84.2407C14.005 84.067 13.8498 83.581 13.3083 83.8712C13.6982 84.0356 13.1365 84.1169 13.3564 83.7418C13.2455 83.0027 12.802 83.2946 12.5341 83.0951C12.6616 83.0951 13.1402 82.7403 13.1587 82.4372C13.0145 82.3799 11.9853 83.3186 12.2902 82.8456C12.4103 82.6719 11.8282 82.6774 12.2107 82.6608C12.244 82.6238 12.1146 82.537 12.0407 82.5536C13.203 82.1674 11.1814 82.2266 12.1109 82.476C10.5439 82.4113 13.0626 81.9642 12.7725 81.905C12.8445 81.6389 11.1648 82.2413 12.2181 81.7406C11.83 81.6519 11.0539 81.772 11.7986 81.3895C10.9172 81.5964 12.2551 80.9755 11.3681 81.3895C11.6822 80.8259 11.4087 81.3525 11.0114 81.0199C12.4047 80.8351 11.9354 80.6392 11.0706 80.8776C11.6416 80.7501 10.8858 80.6263 10.9301 80.2013C11.2443 80.12 10.5476 80.2419 10.7047 80.0738C10.9726 80.351 10.9449 79.7486 10.5328 80.0202C10.5698 79.9389 10.507 79.9149 10.6622 79.8354C10.1078 79.5601 10.823 79.8927 11.1445 79.6654C10.1707 79.4548 10.2982 79.5065 10.3628 79.1258C11.0872 78.9669 10.4829 78.8154 10.2649 79.1258C10.4053 78.8523 10.1503 78.941 9.89532 78.8302C10.2298 78.5179 9.95452 78.3386 9.60892 78.3959C9.94892 78.2573 9.33913 77.9819 9.19685 78.0965C9.85842 77.7269 8.85314 77.9413 9.35022 77.751C9.29294 77.0414 8.9289 78.0855 8.94923 77.5422C8.77923 77.4055 8.78107 76.9878 8.94923 77.2835C8.98434 77.435 9.06195 77.411 9.17098 77.4831C9.33174 77.1782 8.8014 77.4203 9.18945 77.1449C9.42602 77.3297 9.46852 76.9823 9.13587 77.0636C9.09152 77.0765 9.17467 76.8363 8.91967 76.7753C9.30957 76.7476 8.90858 76.6441 8.78108 76.5998C8.72749 76.7439 7.84236 76.1175 8.73488 76.2432C8.78662 75.8533 8.33574 76.1785 8.67205 75.8144C8.4577 75.6962 8.11769 76.0916 8.48726 75.711C8.23226 75.5502 8.454 75.3303 8.25074 75.3137C8.43552 75.2749 8.0216 75.0938 8.03454 74.9903C8.23226 74.9275 8.16019 74.7944 8.00682 74.7261C8.37639 74.8332 8.17128 74.6429 8.32835 74.5912C7.43398 74.2512 8.85684 74.5005 7.94029 74.0275C8.18237 74.0071 7.93106 73.8704 8.22856 73.9258C8.29139 73.741 7.70931 73.9074 8.11399 73.7023C7.66866 73.6598 7.79801 73.3124 7.71485 73.5175C7.78323 73.2385 8.05671 72.7692 7.66127 73.2237C7.57996 72.8431 8.01051 72.8542 7.57626 72.5899C7.76105 72.3017 7.57626 72.6305 7.87747 72.6674C7.83681 72.466 8.24704 72.553 7.74812 72.298C7.8017 72.7396 7.42104 71.9968 7.82573 71.8064C7.5855 71.4368 7.76105 71.8655 7.49496 71.8896C7.45985 71.3167 7.79986 71.398 7.29539 71.0469C7.22517 69.8015 6.90364 69.2619 6.86853 67.9739C6.79462 66.4735 7.1531 68.9367 7.628 69.4116C7.88116 70.4113 8.12139 71.6826 8.6776 72.0799C8.82358 72.285 8.52422 71.9709 8.5039 72.1982C8.75521 72.2536 8.71086 72.2203 8.53161 72.3035C8.93999 72.4883 9.12848 73.5637 8.7164 73.8779C9.51472 73.4344 9.53872 74.3768 9.60712 74.8517C9.29478 74.9515 10.093 75.0586 9.67912 75.2859C9.93972 75.1436 10.1928 76.0732 9.99332 76.1434C10.6825 76.3282 10.1651 76.6478 10.9172 76.8659C10.9357 76.9546 10.749 76.9768 10.6529 77.0507C11.3921 76.8899 10.1651 77.4886 10.6382 77.7621C10.7694 77.6217 10.8451 77.873 10.7712 78.0263C10.7601 78.3035 11.0281 78.0264 11.0539 78.346C11.5362 78.7507 11.0096 78.832 11.7931 78.7895C11.6083 78.9207 11.8596 80.5358 12.3973 80.4988C12.0499 80.5487 12.0684 80.7612 12.3973 80.6633C12.0536 80.8573 12.5138 80.922 12.7133 80.9792C12.3715 81.5336 13.3712 80.7593 12.9517 81.2583C12.9295 81.6851 13.2566 81.8274 13.2843 82.2672C13.5135 82.1988 14.077 82.452 13.8553 82.8327C14.1159 83.6199 13.9976 83.3353 14.5261 84.2056C14.5538 84.3793 14.2175 84.5327 14.6591 84.6436C14.8439 84.1557 14.6203 85.0131 14.9714 84.9485C14.9326 85.318 14.6425 84.7009 14.5797 85.0538ZM97.0427 23.7359C97.1185 23.6565 97.2682 23.6121 97.1832 23.76C97.2122 23.775 97.246 23.7783 97.2774 23.7692C97.2663 23.7821 97.2497 23.8006 97.2257 23.8339C97.2792 23.7692 97.7541 24.1609 97.4751 24.4603C97.4918 24.428 97.515 24.3996 97.5433 24.3768C97.5716 24.3541 97.6043 24.3375 97.6394 24.3281C97.6745 24.3187 97.7111 24.3168 97.747 24.3224C97.7829 24.3281 97.8172 24.3411 97.8477 24.3608C97.8782 24.3805 97.9043 24.4063 97.9243 24.4366C97.9442 24.4669 97.9576 24.5011 97.9636 24.5369C97.9696 24.5727 97.968 24.6094 97.959 24.6446C97.95 24.6798 97.9337 24.7127 97.9112 24.7412C97.9626 24.7399 98.0135 24.7512 98.0595 24.7741C98.1055 24.7969 98.1452 24.8307 98.1753 24.8723C98.2053 24.914 98.2247 24.9624 98.2318 25.0133C98.2389 25.0642 98.2336 25.116 98.2161 25.1643C98.5986 25.1403 98.2937 25.3362 98.7003 25.3491C98.4877 25.5468 98.7113 25.3491 98.7224 25.436C98.4951 25.545 98.3954 25.8056 98.619 25.7169C98.619 25.7945 98.558 26.0088 98.7003 25.8832C98.885 26.238 98.9571 26.0458 99.1031 26.1234C98.9737 26.1973 99.1992 26.5724 99.1031 26.7849C99.3507 26.8016 99.2768 26.7849 99.1437 26.9013C99.3285 26.8699 99.2897 26.8755 99.2029 26.9956C99.4155 26.9494 99.4485 27.0178 99.3655 27.112C99.4895 27.112 99.7355 26.9272 99.5285 27.1212C99.4685 27.306 99.6265 27.3393 99.5775 27.5499C99.6885 27.5185 99.9785 27.6349 99.8015 27.7976C99.7185 28.1302 100.076 28.2872 99.8015 28.5256C99.8795 28.6125 99.9515 28.5663 99.9865 28.57C99.8275 28.7159 100.033 28.7049 99.9305 28.7954C99.9175 28.6106 99.6875 28.8564 99.7645 28.6624C99.9015 28.7806 99.7115 28.4776 99.6505 28.6236C99.4115 28.3094 99.5525 28.5127 99.7885 28.4037C99.7445 28.2872 99.3821 28.0341 99.4024 28.2983C99.2509 28.1302 99.6615 27.8973 99.0329 27.9177C99.1382 27.8197 99.4505 27.8049 99.4985 27.6239C99.2029 27.6645 98.9331 27.9842 98.9054 27.7199C99.1715 27.574 99.0347 27.489 98.7206 27.67C98.8056 27.5222 99.1604 27.4261 99.3082 27.3929C99.2343 27.4058 99.0938 27.4298 98.8462 27.4668C99.3507 27.1656 98.7982 27.4538 98.7095 27.3153C99.1456 27.0861 98.4563 27.3522 98.9109 27.1508C98.7668 27.1508 98.606 27.2691 98.8444 27.0676C98.5543 27.221 98.521 27.0492 98.8296 26.9919C98.3621 27.2543 98.9497 26.9919 99.1197 26.9032L98.5875 27.0288C98.9035 26.9235 98.5395 26.9882 98.5727 26.7609C98.7575 26.7073 98.3639 26.8052 98.4674 26.7258C98.5783 26.8237 98.6263 26.5724 98.3806 26.7258C98.4249 26.48 98.3806 26.7073 98.7298 26.5318C98.545 26.493 98.0738 26.5817 98.3917 26.3913C98.2364 26.4098 98.4212 26.3507 98.5764 26.2694C98.4261 26.3142 98.2678 26.3256 98.1126 26.3026C98.1847 26.2897 98.2457 26.1178 98.1995 26.1178C98.1533 26.1178 97.9888 26.2139 98.0831 26.1363C98.0036 26.1714 97.9962 25.9515 97.7782 26.0957C98.0609 25.8721 97.6525 26.0957 97.8983 25.8573C97.7671 25.7686 97.4862 26.1807 97.732 25.8388C97.9168 25.7908 97.5897 25.8388 97.7966 25.7113C97.7966 25.7667 98.0165 25.6633 97.8484 25.6836C97.9907 25.6337 97.7745 25.6725 97.7357 25.7058C97.817 25.6152 97.6525 25.6485 97.7449 25.5432C97.5342 25.5432 97.1905 25.5154 97.5601 25.423C97.4437 25.2715 97.5841 25.1958 97.3328 25.3547C97.5601 25.1699 97.1055 25.1699 97.3107 25.1348C96.9799 25.0147 97.4954 24.8465 97.1739 24.8484C97.0372 24.8262 97.233 24.804 97.294 24.7079C97.209 24.7208 97.0353 24.7523 97.1573 24.6543C97.1 24.5933 97.3254 24.6081 97.0834 24.5841C97.2035 24.4806 97.0168 24.5841 96.9485 24.5841C96.8395 24.719 97.0945 24.1129 96.8912 24.4566C96.8764 24.2441 96.9503 24.2884 96.797 24.1665C97.0168 24.2607 97.0667 23.9595 96.797 24.1462C96.6916 24.0815 96.9577 23.7766 96.7341 23.8782C96.7914 23.9965 96.6584 23.9595 96.6251 23.8209C96.8099 23.7877 96.298 23.4735 96.189 23.3368C96.0966 23.0762 95.9414 22.9284 95.6901 22.557C96.4089 23.0485 96.7415 23.1668 97.0427 23.7359ZM65.3536 5.26827L65.337 5.25719C65.337 5.25719 65.3185 5.2461 65.3536 5.26827ZM64.984 5.06501C64.9651 5.05957 64.9465 5.05278 64.9286 5.04468L64.984 5.06501ZM64.8621 4.99479C64.7809 4.97457 64.7052 4.93672 64.6403 4.88392C64.6902 4.91718 64.7918 4.95598 64.8639 4.99479H64.8621ZM64.6773 4.93381C64.6523 4.93068 64.629 4.91967 64.6107 4.90239C64.6144 4.89316 64.6625 4.93011 64.6791 4.93381H64.6773ZM64.4925 4.72315C64.5128 4.73793 64.5202 4.73793 64.5313 4.75087C64.4555 4.71022 64.4962 4.74163 64.4906 4.72315H64.4925ZM64.4167 4.73609C64.4703 4.74902 64.4371 4.73609 64.4167 4.70652C64.5036 4.75087 64.5073 4.7712 64.4149 4.73609H64.4167ZM64.3816 4.63815C64.3631 4.63815 64.4038 4.66032 64.4112 4.67326C64.3761 4.6788 64.2892 4.60674 64.3798 4.63815H64.3816ZM64.3299 4.66956C64.3389 4.67122 64.3477 4.67434 64.3557 4.6788C64.3225 4.68989 64.2911 4.63815 64.328 4.66956H64.3299ZM64.3761 4.71391C64.3373 4.70913 64.299 4.7011 64.2615 4.68989L64.3761 4.71391ZM64.073 4.48293C64.11 4.53282 64.1211 4.56054 64.0194 4.51804C64.0675 4.52913 64.086 4.53467 64.0712 4.48293H64.073ZM64.1469 4.61228C64.0933 4.61228 64.1248 4.63815 64.0952 4.64554C64.0379 4.59565 64.11 4.61043 64.1451 4.61228H64.1469ZM63.9751 4.64C63.8531 4.43488 64.097 4.6825 64.0139 4.67326C64.0213 4.64739 64.0176 4.63261 63.9732 4.64H63.9751ZM63.9178 4.51434C63.9326 4.50141 63.9936 4.53282 64.0176 4.52913C63.9899 4.56793 63.964 4.51249 63.9159 4.51434H63.9178ZM63.9012 4.4201C63.9363 4.44967 63.94 4.47923 63.9123 4.45706L63.8901 4.44597C63.9012 4.45151 63.9159 4.45151 63.9012 4.4201ZM63.7515 4.25749C63.7238 4.25749 63.77 4.30184 63.7404 4.30923C63.6443 4.23162 63.6258 4.23347 63.7496 4.25749H63.7515ZM63.7404 4.47369C63.7256 4.50695 63.6628 4.49032 63.6425 4.44782L63.7404 4.47369ZM63.175 4.06531C63.162 4.09672 63.1565 4.10596 63.1343 4.07455L63.175 4.06531ZM63.2082 4.2039C63.4133 4.14477 63.5131 4.26118 63.6554 4.34064C63.5316 4.32032 63.4263 4.36651 63.5224 4.27966C63.2433 4.06716 63.3098 4.47369 63.1214 4.34249C62.8719 4.22607 63.4706 4.38684 63.2064 4.2039H63.2082ZM63.3708 4.40901C63.3708 4.43488 63.356 4.42564 63.3376 4.4238C63.3191 4.42195 63.3339 4.40162 63.369 4.40162L63.3708 4.40901ZM63.0678 4.20575C63.0565 4.19899 63.0439 4.19459 63.0308 4.19281C63.0511 4.19466 63.077 4.18542 63.0659 4.20575H63.0678ZM62.9514 3.96737C62.9162 3.99324 62.9514 3.98031 62.8904 3.95444L62.9514 3.96737ZM62.6077 3.84726C62.6077 3.82509 62.5873 3.89531 62.5725 3.87683C62.4709 3.86204 62.6539 3.79922 62.6077 3.84726ZM52.8675 2.78474C53.2907 2.75702 53.7674 2.71452 53.9393 2.96952C53.8765 2.6406 54.1463 2.61473 54.4641 2.64799C55.0185 2.68865 55.425 2.74963 56.0034 2.64799C55.9461 2.52234 56.3378 2.88637 56.275 2.59441C56.4413 2.70528 56.6446 2.33755 56.5928 2.69234C56.7111 2.19527 56.7776 3.06192 56.822 2.82724C57.1213 2.91409 57.2193 2.84756 57.5611 2.86419C57.9566 2.76811 57.8365 3.04898 58.1377 2.66647C58.1266 2.9455 59.5069 3.06376 59.5032 3.16909C59.9985 3.08224 59.98 3.05268 60.5935 3.25594C61.2347 3.25594 61.7373 3.62552 62.2991 3.72345C62.4691 3.78443 62.7426 4.17803 62.6686 3.87313C62.7315 3.87313 62.8996 4.09303 63.0382 4.01911C63.1195 4.12999 62.4303 4.2039 62.0995 3.98955C62.179 3.98955 62.3582 4.14107 62.3508 3.87498C62.166 3.88791 61.8186 3.69943 61.693 4.00248C61.9461 3.95259 61.8297 4.04129 61.693 4.09303C61.7262 4.02281 61.8057 3.96922 61.6671 4.02835C61.4823 3.65878 61.1515 3.84357 60.9908 3.95074C60.7228 3.95074 61.2033 3.74932 60.867 3.46475C60.6933 3.83433 60.8928 3.96368 60.4974 3.90824C60.5362 3.87313 60.4013 3.43888 60.2128 3.89715C60.5251 3.92487 59.7157 4.05792 60.4992 3.34279C59.9578 3.57378 60.1093 3.6403 59.6695 3.74008C59.7047 3.30399 59.4848 3.92487 59.5919 3.49801C59.4515 3.59965 59.5236 3.78813 59.3979 3.48138C59.3517 3.5553 59.4071 3.77519 59.2593 3.64954C59.0745 3.72345 59.2316 3.56823 59.2593 3.44258C59.2427 3.92302 59.3776 3.36681 59.3868 3.19496C59.0708 3.64584 59.202 3.53312 58.7622 3.51649C58.5516 3.34464 58.5497 3.48323 58.1765 3.52943C58.4924 3.2966 58.4185 3.05268 58.0231 3.5091C57.7866 3.29844 57.794 3.47399 57.866 3.13953C57.5962 3.44073 57.5944 3.48138 57.2488 3.29844C57.0992 3.48323 57.1417 3.40562 56.8478 3.42225C56.7628 3.64584 56.6982 3.40008 56.4358 3.37051C56.5041 3.83617 56.2233 3.40377 56.2842 3.24116C56.02 3.44073 55.7539 3.21714 55.4047 3.59041C55.5894 3.26333 55.1774 3.25225 55.1497 3.48508C55.0831 3.34095 54.7801 3.34279 54.7468 3.48508C54.8374 3.23746 54.4918 3.61813 54.4641 3.37051C54.1888 3.56639 54.5491 3.18572 54.3126 3.33355C54.3458 3.14877 54.1888 3.49432 54.0742 3.37051C54.1093 3.27442 54.2424 3.34649 54.1075 3.2079C54.0151 3.36682 53.7638 3.40192 53.8598 3.2079C53.7601 3.29475 53.4127 3.35388 53.4367 3.39269C52.5608 3.09148 51.6369 3.42225 49.2771 3.6828C49.7927 3.25594 52.7696 2.96768 52.8749 2.78289L52.8675 2.78474ZM63.0123 4.19281C62.9698 4.18357 62.931 4.18357 62.9403 4.14292C63.0123 4.13738 63.0234 4.14662 63.0197 4.19096L63.0123 4.19281ZM62.9292 4.22977V4.28151C62.8922 4.26118 62.9089 4.2501 62.9366 4.22792L62.9292 4.22977ZM62.7629 4.17249C62.7159 4.17559 62.6692 4.16326 62.6298 4.13738C62.6428 4.11705 62.737 4.17249 62.7703 4.17064L62.7629 4.17249ZM62.1124 4.12999C62.0367 4.17803 62.094 4.10966 62.0958 4.0764C62.1087 4.09672 62.105 4.11151 62.1198 4.12814L62.1124 4.12999ZM61.8777 3.9027H61.9517C61.9665 3.94335 61.8537 3.94889 61.8851 3.90085L61.8777 3.9027ZM61.8777 4.14292C61.7872 4.12444 61.8944 4.10966 61.9073 4.09118C61.972 4.12444 61.8962 4.12259 61.8833 4.14107L61.8777 4.14292ZM60.8799 3.71421L60.9316 3.57378C60.9316 3.57378 60.9187 3.74378 60.8854 3.71237L60.8799 3.71421ZM59.9707 3.84726C59.9042 3.78813 59.9393 3.93411 59.8654 3.88052C59.8931 3.71791 59.9689 3.75487 59.9763 3.84726H59.9707ZM55.8592 3.47769C55.8371 3.48877 55.8445 3.38529 55.8389 3.3779L55.8592 3.47769ZM55.3049 3.5553C55.279 3.5553 55.2494 3.56823 55.2254 3.5553C55.231 3.44997 55.2605 3.57193 55.316 3.55899L55.3049 3.5553ZM51.0954 105.788H51.1767C51.1767 105.788 51.2654 105.786 51.0954 105.788ZM52.8139 105.685L52.8435 105.676L53.0579 105.646L52.8139 105.685ZM53.3886 105.644C53.7209 105.572 54.0595 105.535 54.3994 105.531C54.161 105.544 53.7268 105.613 53.3886 105.644ZM54.1703 105.504C54.2671 105.474 54.3683 105.46 54.4696 105.463C54.477 105.48 54.2387 105.48 54.1703 105.504ZM55.0942 105.602C55.2051 105.616 54.9298 105.616 55.0942 105.602ZM55.2531 105.591C55.188 105.597 55.1224 105.597 55.0573 105.591C55.2199 105.572 55.2661 105.563 55.2735 105.563C55.2809 105.563 55.2162 105.58 55.2494 105.591H55.2531ZM55.4989 105.469C55.2846 105.517 55.4435 105.509 55.5673 105.513C55.1515 105.563 55.0831 105.524 55.4952 105.469H55.4989ZM48.4955 79.8262L41.4052 82.3504L34.2983 84.8413L34.204 84.8745C33.6559 85.066 33.0541 85.0324 32.5307 84.7809C32.0073 84.5294 31.6049 84.0807 31.4119 83.533C31.3307 83.295 31.2889 83.0453 31.2881 82.7939C31.2881 80.6817 31.3269 78.5715 31.3472 76.4594C31.3676 74.3472 31.3897 72.2388 31.4285 70.1267L31.4433 69.1861L27.9047 70.3428L25.7999 71.0303L23.6915 71.7085L23.5696 71.7473C23.1794 71.8723 22.7557 71.8375 22.3912 71.6504C22.0268 71.4633 21.7514 71.1393 21.6256 70.7494C21.5749 70.59 21.5499 70.4234 21.5517 70.2561C21.5831 67.8076 21.6145 65.3574 21.6644 62.9071C21.7143 60.4568 21.766 58.0084 21.8252 55.5581C21.8646 54.0872 21.9065 52.6163 21.9508 51.1454C21.9305 50.9052 21.912 50.6649 21.8935 50.4247L21.5055 45.2618L21.1359 40.0988C21.1238 39.9166 21.1551 39.7342 21.2274 39.5665C21.2997 39.3988 21.4108 39.2507 21.5516 39.1344C21.6924 39.0182 21.8589 38.9371 22.0372 38.8979C22.2155 38.8586 22.4007 38.8624 22.5773 38.9088L22.6863 38.9384L26.9659 40.0933L31.2382 41.2648L32.1622 41.518C32.2841 38.3766 32.4227 35.25 32.6019 32.1142C32.9031 35.3627 33.1563 38.6131 33.4039 41.8635C35.529 42.4512 37.6528 43.0437 39.7754 43.6412L39.9602 43.6929C39.9269 42.7308 39.8961 41.7674 39.8678 40.8029L39.6941 35.1336L39.5518 29.4569C39.5449 29.1836 39.5921 28.9115 39.6906 28.6564C39.7892 28.4013 39.9371 28.1682 40.126 27.9704C40.3148 27.7726 40.5409 27.614 40.7912 27.5038C41.0414 27.3936 41.311 27.3339 41.5844 27.3282C41.8051 27.3229 42.0252 27.3522 42.2367 27.415L42.3698 27.4575C44.3914 28.0766 46.4037 28.7196 48.4197 29.3516C50.4357 29.9836 52.4518 30.6156 54.4623 31.266L60.4974 33.2026C62.5097 33.8456 64.5147 34.5109 66.5233 35.165C68.5319 35.8192 70.5424 36.4696 72.5455 37.1385L78.5603 39.1416L81.5668 40.1432L84.5677 41.1577L90.5696 43.1903C91.1212 43.3776 91.6015 43.7306 91.9448 44.2012C92.2881 44.6718 92.4777 45.237 92.4876 45.8194C92.4975 46.4018 92.3272 46.9731 92.0002 47.4551C91.6731 47.9371 91.2051 48.3063 90.6602 48.5122L90.6269 48.5251C87.8551 49.5544 85.0833 50.5467 82.3115 51.5575L78.1501 53.069L75.3025 54.0872L78.0078 54.9095L82.2376 56.2141C85.0574 57.0881 87.881 57.9474 90.6934 58.8399C91.2486 59.0158 91.7353 59.3598 92.0865 59.8243C92.4376 60.2889 92.6358 60.851 92.6537 61.4331C92.6715 62.0151 92.5082 62.5883 92.1861 63.0735C91.8641 63.5587 91.3993 63.9319 90.856 64.1415H90.8357L83.799 66.8227C81.4578 67.7208 79.1036 68.5856 76.755 69.4689L69.7053 72.1002L62.6428 74.6982C60.2904 75.5704 57.9289 76.4187 55.571 77.2724C53.2131 78.1261 50.857 78.9891 48.4918 79.8262H48.4955ZM89.3704 89.971C89.4213 89.905 89.4776 89.8432 89.5385 89.7862C89.7067 89.9192 89.5089 89.862 89.3667 89.971H89.3704ZM88.0029 91.7837L87.7941 91.6969L87.8366 91.6655L88.0029 91.7837ZM73.2625 100.099C73.5914 100.082 73.2459 99.9144 73.5988 99.8594C73.7651 100.032 73.645 100.027 73.475 100.178C73.5267 100.077 73.207 100.191 73.2588 100.09L73.2625 100.099ZM70.1211 101.863L70.1507 102.179L70.0509 101.887L70.1211 101.863ZM68.2529 102.481H68.2437C68.2196 102.46 68.2123 102.458 68.2511 102.471L68.2529 102.481ZM65.7601 102.891C65.4866 102.926 65.7601 102.813 65.7823 102.763C66.1389 102.641 65.7749 102.834 65.7583 102.882L65.7601 102.891ZM66.1685 103.155L65.8895 103.268C65.7989 103.199 66.2092 103.022 66.1667 103.146L66.1685 103.155ZM65.0801 103.209C65.0379 103.173 64.9855 103.152 64.9304 103.148L65.0505 103.053L65.0801 103.209ZM63.0271 103.922C63.0401 103.953 62.8553 103.97 62.6908 104.003C62.6221 104.03 62.5518 104.051 62.4802 104.068C62.5465 104.035 62.6176 104.014 62.6908 104.003C62.7315 103.985 62.7629 103.968 62.7536 103.95L63.0271 103.922ZM62.3231 103.992C62.2338 104.015 62.1417 104.025 62.0496 104.022L62.3231 103.992ZM61.8851 104.371C61.7151 104.445 61.5433 104.517 61.5692 104.393C61.5593 104.392 61.5494 104.392 61.5396 104.393C61.704 104.347 61.8482 104.288 61.8851 104.371ZM61.7004 104.125L61.8574 104.112L61.7817 104.216L61.7004 104.125ZM59.8931 104.543L59.8765 104.506C59.9098 104.487 59.9504 104.489 59.9818 104.473C60.1297 104.454 60.0336 104.508 59.8839 104.539L59.8931 104.543ZM58.6163 104.85L58.8325 104.874L58.4352 104.972C58.4592 104.94 58.4019 104.907 58.6329 104.883L58.6163 104.85ZM57.0788 105.034C57.138 105.034 57.1269 105.034 57.0955 105.046C56.9901 105.151 57.2803 105.046 57.2803 105.046C57.3672 105.061 57.4502 105.093 57.5242 105.142C57.3885 105.115 57.2501 105.105 57.1121 105.112C56.9033 105.156 56.968 105.084 57.0918 105.053C57.0844 105.033 57.0844 105.029 57.064 105.025L57.0788 105.034ZM55.8149 105.589C55.8851 105.57 55.6911 105.589 55.643 105.568L55.8555 105.522C55.9775 105.535 56.0274 105.55 55.8056 105.583L55.8149 105.589ZM55.7077 105.517C55.8075 105.491 55.85 105.463 55.8352 105.489C55.9017 105.434 55.9091 105.459 55.9424 105.469L55.7077 105.517ZM55.6948 105.456L56.0773 105.352L56.153 105.341L55.6948 105.456ZM56.8405 105.19C57.1287 105.19 56.8405 105.273 56.7093 105.319C56.9014 105.241 56.737 105.236 56.8312 105.184L56.8405 105.19ZM57.21 105.43C57.1952 105.4 57.0363 105.406 56.9532 105.402L57.1084 105.36C57.0918 105.339 57.1269 105.319 57.3412 105.297L57.1084 105.36C57.1213 105.378 57.2137 105.402 57.2026 105.424L57.21 105.43ZM57.6905 105.191H57.5962L57.332 105.269C57.3985 105.243 57.3486 105.227 57.332 105.212L57.587 105.191L57.7071 105.155L57.6905 105.191ZM57.7478 105.254L57.842 105.243L57.9473 105.293C57.8754 105.301 57.8029 105.285 57.7404 105.249L57.7478 105.254ZM57.9972 105.395L58.1247 105.326L58.2245 105.288L57.9972 105.395ZM58.7789 105.345C58.8787 105.304 58.6366 105.302 58.7271 105.243C58.884 105.259 59.0425 105.246 59.1946 105.204C59.0601 105.268 58.9179 105.313 58.7715 105.339L58.7789 105.345ZM60.6489 104.94L60.6859 104.848L60.8577 104.783L60.6489 104.94ZM60.9076 104.539C60.538 104.432 60.1204 104.654 60.8411 104.652C60.6009 104.741 60.6083 104.77 60.6064 104.803L60.6304 104.815H60.6046C60.5768 104.87 60.5436 104.877 60.405 104.936C60.2841 104.907 60.1598 104.894 60.0354 104.898C59.8765 104.938 59.7176 104.975 59.5568 105.014C59.5568 105.014 59.5568 105.014 59.5716 105.014C59.6418 105.014 59.7084 105.014 59.7675 105.027C59.7509 105.049 59.6307 105.027 59.5716 105.014C59.5125 105.001 59.4016 105.014 59.3129 105.014C59.1927 105.037 59.0741 105.068 58.9581 105.106C58.8491 105.123 58.8306 105.106 58.875 105.06C58.7826 105.075 58.6902 105.092 58.6163 105.11C58.5726 105.134 58.5268 105.154 58.4795 105.169C58.4961 105.169 58.5017 105.184 58.4647 105.169H58.4795L58.4407 105.156C58.4906 105.14 58.5516 105.125 58.6163 105.11C58.6873 105.072 58.7666 105.052 58.8472 105.051C58.8694 105.051 58.8842 105.042 58.875 105.051C59.0154 105.029 59.1669 105.014 59.3129 105.005C59.3979 104.986 59.4848 104.97 59.5716 104.948C59.348 104.948 59.5032 104.896 59.5346 104.874C59.5661 104.851 59.4644 104.874 59.3499 104.898C59.4958 104.835 59.5346 104.759 59.7194 104.739C59.8894 104.802 59.6363 104.874 59.5808 104.955C59.7327 104.922 59.8863 104.898 60.041 104.883L60.1426 104.857L60.1093 104.872L60.6157 104.8V104.785C60.3902 104.687 60.1685 104.489 60.4013 104.375C60.66 104.406 60.9279 104.28 60.9316 104.19C61.0111 104.19 60.9316 104.247 60.9316 104.271L61.207 104.16C61.3031 104.299 60.7598 104.449 60.9002 104.534L60.9076 104.539ZM61.2051 104.829V104.75L61.3308 104.759L61.2051 104.829ZM61.353 104.443C61.4056 104.437 61.4575 104.426 61.5082 104.41C61.4102 104.436 61.3363 104.487 61.3456 104.438L61.353 104.443ZM62.2122 104.657C62.2473 104.643 62.2122 104.62 62.1993 104.602C62.273 104.617 62.3491 104.617 62.4229 104.602L62.2122 104.657ZM63.3302 104.404C63.2766 104.43 63.2581 104.419 63.3302 104.404C63.3302 104.404 63.3209 104.401 63.3025 104.393C63.3645 104.389 63.4263 104.381 63.4872 104.369L63.3302 104.404ZM63.6 104.356C63.6535 104.384 63.5907 104.249 63.6776 104.256C64.086 104.099 63.5316 104.487 63.5926 104.351L63.6 104.356ZM102.932 70.67C102.949 70.5961 102.966 70.5166 102.977 70.4686C102.956 70.5739 102.942 70.6349 102.932 70.67ZM103.165 69.6573C103.165 69.6075 103.2 69.4855 103.213 69.4356L103.165 69.6573ZM102.901 70.6792C102.916 70.6626 102.901 70.7679 102.932 70.67C102.899 70.8233 102.871 70.9564 102.932 70.7605C102.563 72.1538 101.905 73.9832 101.559 75.116C101.375 75.3395 101.506 75.3784 101.465 75.5262C101.378 75.6352 101.28 75.7424 101.197 75.8496C101.173 76.0177 101.258 75.9161 101.279 75.9364C101.072 76.6053 100.602 77.2299 100.417 77.8822C100.284 78.0356 100.318 77.7806 100.192 78.006C100.501 77.7676 99.9325 78.7248 100.14 78.577C99.8575 78.7138 99.6835 79.3956 99.4895 79.1609C99.3304 79.427 99.4765 79.4474 99.5395 79.379C99.3722 79.6509 99.2446 79.9452 99.1604 80.253C98.9275 80.4933 98.4822 81.663 98.0276 81.8681C98.2808 81.7701 98.0886 81.9272 98.0369 82.1452L98.2586 82.0603C98.2106 82.1083 97.9593 82.5499 97.9223 82.561C97.6414 82.5499 97.5657 83.0082 97.573 83.1745L97.6174 83.145C97.5823 83.2115 97.5453 83.2761 97.5084 83.339C97.416 83.472 97.6932 82.7735 97.3439 83.1727C97.3735 83.2022 97.3642 83.5737 97.1942 83.6272C97.3531 83.4092 97.246 83.3778 97.1517 83.4332L96.9281 83.7363L97.161 83.7474C96.5253 84.6805 95.7455 85.4825 95.0544 86.3843C94.9158 86.2494 94.5278 87.0107 94.3744 86.7538L94.4224 86.7372C94.5832 86.5025 94.197 86.6559 94.075 86.8518C94.2986 86.7243 94.0196 87.371 94.4261 86.9479L94.2413 87.3857C94.4723 88.0509 93.2971 88.3541 93.0938 88.9158C93.1009 88.9001 93.1045 88.8831 93.1045 88.866C93.1045 88.8488 93.1009 88.8317 93.0938 88.8161C92.9552 89.2577 92.2068 89.6106 92.0147 89.8804L91.8594 89.8064C91.6746 90.3719 91.6432 90.4403 91.1369 90.7933C91.124 90.7674 91.1369 90.6843 91.0464 90.7268C91.041 90.8585 91.0047 90.9872 90.9406 91.1024C90.8764 91.2177 90.786 91.3162 90.6768 91.3901L90.6528 91.3384L90.1927 91.8281C89.8471 91.4474 89.5681 92.8426 89.0359 92.5543C89.0359 92.7576 88.7144 93.1234 88.6016 93.3267C88.6294 93.347 88.6016 93.4154 88.585 93.4635C88.5481 93.445 88.561 93.3951 88.6016 93.3267C88.5902 93.3167 88.5765 93.3094 88.5618 93.3056C88.547 93.3017 88.5316 93.3014 88.5166 93.3045C88.6257 93.7018 87.1677 93.8903 87.8459 94.1379C87.419 94.1989 87.2416 94.9953 87.0605 95.0046C86.8277 95.1598 86.8499 94.9066 86.715 94.8586C86.4267 95.1524 87.0716 95.2041 86.508 95.3741C86.5431 95.315 86.6244 95.2262 86.569 95.2299C86.3842 95.3316 85.7023 95.0452 85.6136 95.2596H85.7799C85.6487 95.5737 84.5677 95.413 85.087 95.8638C84.4218 96.0301 84.9022 96.0763 84.2388 96.2648L84.2296 96.2353C84.006 96.42 83.7621 96.311 83.7879 96.6196L83.8914 96.5993C83.6878 96.7424 83.4713 96.8661 83.2447 96.9689C83.2225 97.0114 83.0913 97.1333 83.0192 97.1093C83.119 97.3163 82.3429 97.6175 82.1932 97.6748C82.4279 97.5103 82.2616 97.49 82.147 97.4456C82.0879 97.6877 81.9937 97.7597 81.7257 97.7505C81.8292 98.0148 81.9327 98.3049 81.5243 98.5359C81.7239 98.3307 81.5132 98.303 81.4319 98.4712C81.3654 98.4398 81.4763 98.3326 81.3857 98.2679C81.2305 98.6486 80.9127 98.5266 80.5523 98.813C80.6429 98.6726 80.508 98.68 80.4193 98.6135C80.5265 98.9165 79.743 98.6135 80.0756 98.9221C79.1775 99.0847 78.0281 99.8184 77.6087 99.7074C77.4793 99.6374 77.3259 99.8924 77.1855 99.9644L77.1541 99.8294C76.8529 100.221 76.8806 100.038 76.5055 100.452C76.6404 100.226 76.5295 100.189 76.2893 100.149L76.0712 100.533L75.9326 100.365C75.8215 100.475 75.6716 100.537 75.515 100.539C75.4651 100.797 74.9607 100.964 74.9163 101.111C74.6761 100.906 74.5467 101.313 74.362 101.111C74.3209 101.168 74.2724 101.219 74.2178 101.263C74.3268 101.35 74.4026 101.468 74.2474 101.457L74.2178 101.472C74.4747 101.738 74.2178 101.64 73.9296 101.549C73.8482 101.549 73.7669 101.518 73.693 101.549C73.7004 101.542 73.7092 101.535 73.7189 101.531C73.6675 101.526 73.6156 101.532 73.5666 101.548C73.5176 101.564 73.4725 101.59 73.4343 101.625C72.88 101.553 72.4882 102.277 71.8636 102.128C71.9523 102.128 72.0669 102.115 72.0798 102.054C71.6456 102.2 71.1559 102.133 70.9064 102.324L70.9674 102.449C70.7129 102.59 70.4433 102.701 70.1636 102.78L70.1932 102.93C69.7996 102.987 69.0475 103.425 68.7315 103.198C68.6705 103.336 68.1938 103.297 67.9924 103.382L67.9092 103.292C67.6952 103.319 67.4873 103.381 67.2939 103.477H67.3789C67.3202 103.525 67.2513 103.559 67.1772 103.577C67.1032 103.595 67.0262 103.595 66.952 103.578C66.8245 103.6 66.6949 103.607 66.5658 103.599C66.5676 103.587 66.5725 103.576 66.58 103.568C66.5875 103.559 66.5973 103.552 66.6083 103.549C66.7237 103.54 66.8397 103.55 66.952 103.578C67.07 103.556 67.1848 103.519 67.2939 103.469C66.6619 103.392 66.1851 103.737 65.6807 103.828L65.6677 103.802L65.1744 103.987C64.9896 104.125 64.3945 104.171 63.9732 104.231C64.3206 104.094 63.9159 104.105 63.8716 104.007L63.6868 104.134C63.5926 104.103 63.8014 104.025 63.6443 104.037C63.5187 104.123 63.1047 104.203 62.9994 104.33C63.0448 104.355 63.0955 104.369 63.1472 104.371C63.1639 104.371 63.162 104.371 63.1472 104.371C63.1285 104.385 63.1122 104.402 63.0992 104.421L63.1971 104.412C63.1029 104.447 63.0881 104.439 63.0992 104.421C62.8331 104.449 62.9384 104.471 62.9569 104.513C62.628 104.417 62.4857 104.55 62.2178 104.421C62.567 104.558 61.5414 104.547 61.7706 104.691C61.5193 104.587 61.6172 104.709 61.4509 104.615C61.7687 104.596 62.0496 104.41 62.2824 104.295L62.02 104.255C62.142 104.055 62.5744 104.203 62.7111 104.116C62.6224 104.177 62.3952 104.183 62.3785 104.147L62.4728 104.264C62.7741 104.232 63.0635 104.128 63.3172 103.963C63.0752 103.963 63.5796 103.82 63.3875 103.759L63.2027 103.817C63.1066 103.787 63.2747 103.706 63.3671 103.632C63.9677 103.597 64.9988 103.249 65.2335 103.312C65.0803 103.32 64.9323 103.37 64.8066 103.458H65.0912C64.8731 103.515 64.668 103.429 64.352 103.554C64.4297 103.634 64.2227 103.811 64.5017 103.883C65.1633 103.883 64.9545 103.514 65.7102 103.379C65.7712 103.331 65.5938 103.575 65.98 103.427C66.4549 103.203 66.758 102.872 66.697 102.656C66.5122 102.778 66.1223 103.017 66.017 102.878C66.2018 102.758 66.5566 102.619 66.5473 102.508C66.8116 102.632 66.1777 102.671 66.4937 102.747C66.591 102.712 66.6776 102.653 66.745 102.575C66.6674 102.678 66.9095 102.667 66.9668 102.699C67.4398 102.569 67.7336 102.575 68.2474 102.451C68.2825 102.471 68.3564 102.518 68.3545 102.569C68.5892 102.447 68.8553 102.046 68.7241 101.95C69.0105 101.854 69.053 101.95 69.2785 101.815C68.835 101.754 69.3653 101.815 69.3487 101.614C69.5908 101.514 69.4632 101.682 69.5926 101.69C69.6277 101.657 69.7072 101.559 69.6979 101.505C69.6464 101.482 69.5896 101.473 69.5335 101.479C69.6499 101.451 69.6924 101.47 69.6979 101.505C69.8975 101.605 69.5131 101.985 69.7497 102.1C70.0144 102.161 70.284 102.197 70.5553 102.209C70.6237 102.006 70.3706 101.322 70.1266 101.158C70.1082 101.036 70.3983 101.204 70.5128 101.182C70.8824 101.268 70.9452 100.873 71.2298 100.858L71.0654 101.032C71.1245 101.067 71.4885 100.875 71.5273 100.784C71.3425 101.854 72.5196 100.622 72.2923 100.393C72.078 100.548 71.8636 100.705 71.6456 100.853C71.5661 100.696 72.1002 100.509 72.0022 100.315L72.6767 100.13C72.5972 100.167 72.3607 100.306 72.4919 100.365C72.7709 100.254 72.649 100.341 72.8615 100.354C72.5551 100.802 72.2892 101.277 72.0669 101.773C72.1704 101.701 72.2739 101.625 72.3755 101.547L72.4956 101.62C72.9058 101.337 73.0777 100.527 73.1313 100.306C73.3992 100.256 73.4417 100.659 73.4048 100.751C73.9166 100.588 73.7152 100.049 74.2363 99.9164L74.0183 99.9034C74.1236 99.8274 74.5726 99.7374 74.5079 99.6854C74.6447 99.7464 74.8239 99.9454 74.7371 100.054L75.0457 99.5314C74.9958 99.5944 75.1528 99.8794 75.1455 99.9444C75.3302 99.8884 75.3155 99.4784 75.1843 99.4724C75.6167 99.5574 75.4836 99.4723 75.8643 99.6133C75.9585 99.5523 75.7275 99.2953 75.6407 99.2935C75.7677 99.1714 75.9341 99.0986 76.11 99.0884L76.1193 99.0773V99.0884C76.2911 99.0754 76.3669 99.02 76.4408 98.8241L76.402 99.4354L76.1193 99.0884H76.1027C75.7756 99.3748 76.2708 99.8124 76.2874 100.075C76.4445 99.6614 76.5979 99.2528 76.742 98.8315C76.7509 98.9728 76.7745 99.1127 76.8122 99.2491C76.7679 98.9461 77.6863 98.5248 78.1501 98.3511L78.0836 98.3843C78.0337 98.5192 78.4531 98.4194 78.5714 98.2531C78.5714 98.3197 78.5252 98.3196 78.4587 98.3529C78.8541 98.4213 78.6638 97.7671 79.0759 97.8614C78.7895 97.9667 78.7858 98.1016 78.8486 98.2014C79.0334 97.9981 79.6025 97.854 79.342 97.5861C79.5175 97.5861 79.6284 97.4826 79.6931 97.6489C79.8483 97.4992 79.9998 97.344 80.1495 97.1888C80.1255 97.2423 80.1366 97.3532 80.3066 97.2941C79.9813 97.4087 79.8261 97.8485 79.5674 97.7191C79.6543 97.9205 79.8224 97.9704 79.7522 98.2088C80.3158 97.8392 80.4692 97.3181 80.7242 96.9153C80.9237 96.8765 81.1159 96.8266 81.3118 96.7822L81.2859 96.6824L81.4966 96.8672C81.5428 96.7102 81.6056 96.6824 81.589 96.8284C81.6317 96.7957 81.6659 96.7533 81.6888 96.7046C81.6653 96.6805 81.6399 96.6583 81.613 96.6381C81.674 96.6381 81.7017 96.6547 81.6888 96.7046C81.761 96.8493 81.7736 97.0164 81.7239 97.1702L81.7904 97.1869C81.9604 96.906 82.1433 96.5771 81.8403 96.5457C81.9641 96.5365 82.0861 96.5235 82.2099 96.5106C82.3406 96.2393 82.5126 95.9899 82.7199 95.7714C82.7882 95.8343 82.7199 95.9562 82.8233 95.9747C82.9767 95.5497 83.7325 95.8102 83.666 95.5552C83.8766 95.3538 83.6512 95.3095 83.7639 95.1524C83.7639 95.1801 83.7879 95.2374 83.8341 95.2115L83.9118 94.9398C84.0208 94.9398 83.8175 95.1561 84.0614 95.0877C84.3294 94.744 84.4791 94.5426 84.8006 94.4114C85.1702 94.0936 84.4218 94.2359 84.7747 94.0289C84.9096 94.1139 85.0574 94.2266 85.2792 94.0954C85.3291 93.9347 85.2441 93.8515 85.3827 93.6612L85.5102 93.846C85.6709 93.7092 85.7781 93.5725 85.8797 93.7055C85.9007 93.6416 85.9367 93.5836 85.9846 93.5364C86.0324 93.4892 86.0909 93.454 86.1551 93.4339C86.3269 93.1253 85.6524 93.2325 85.5656 93.1974C85.9167 93.1475 86.0257 92.9183 86.3417 93.0126L86.1569 93.2436C86.8055 93.0588 86.3953 92.6282 86.9219 92.8112C86.7482 92.9331 86.6337 93.1807 86.8092 93.2029L86.9663 92.9183C87.0328 92.9405 86.861 93.0606 87.0125 93.0237C87.0595 92.8928 87.0947 92.758 87.1178 92.6208L87.0901 92.5543C87.1178 92.534 87.1234 92.5672 87.1178 92.6208V92.6338L87.5114 92.2531C87.3636 92.5488 87.7239 92.1127 87.7405 92.0073C87.6962 92.1219 87.8255 92.0997 87.9697 92.0184C88.3614 91.7597 87.9124 91.3994 88.3392 91.331C88.2967 91.3624 88.3097 91.3883 88.2672 91.4197L88.4723 91.3698C88.1859 91.0002 89.2502 90.614 88.9546 90.2426C89.2743 90.2001 89.0451 90.3091 88.9546 90.7009L89.2484 90.6066C89.1782 90.6972 89.0858 90.736 89.0285 90.8543C89.4276 90.7434 89.5108 90.3276 89.5718 90.1059C89.7196 90.0578 89.7325 90.4311 89.9709 90.1059C90.3183 89.655 89.6586 89.9396 89.8674 89.6698H90.213C90.3774 89.169 90.9373 89.1376 91.0686 88.7458C91.0686 88.7458 91.0686 88.7458 91.0575 88.7458V88.7107C91.0334 88.6682 90.9558 88.6608 90.9817 88.598C91.0023 88.568 91.0252 88.5396 91.0501 88.513V88.7107L91.063 88.7383C91.4067 88.5314 91.4788 88.0159 91.7282 87.8515C91.7171 87.9328 91.9481 87.8274 92.0128 87.8385L92.2697 87.3599C92.1532 87.5687 92.2567 87.6501 92.3196 87.7646C92.423 87.6353 92.423 87.5299 92.4877 87.4375C92.4748 87.517 92.4618 87.6002 92.5653 87.5743L92.7852 87.0199C92.7369 87.0393 92.6929 87.0682 92.6559 87.1049C92.7483 87.0033 92.8979 86.7354 93.1031 86.6522C93.1271 86.6965 93.116 86.7779 93.1419 86.8222C92.9312 86.8592 92.9571 87.007 92.9571 87.129C93.201 86.8333 93.0476 87.0809 93.238 87.0015C93.4117 86.7926 93.3581 86.6005 93.238 86.5857C93.4452 86.4551 93.5986 86.2544 93.6703 86.0202L93.759 86.1718L93.9069 85.9223V86.2271C94.3541 85.8815 93.7535 85.9685 94.2266 85.5675L94.3393 85.6562C94.4501 85.4418 94.3079 85.2275 94.5573 85.1924C94.6331 84.9632 94.1545 85.3772 94.4686 84.9374C94.6191 84.88 94.7566 84.7933 94.8733 84.6824C94.9306 84.5105 94.6608 84.6824 94.6072 84.7785C95.0636 84.1151 95.3039 84.6805 95.6051 84.0005C95.3464 84.0985 95.5016 83.7141 95.1616 84.1428C95.278 83.8841 95.655 83.8268 95.7159 83.509L95.74 83.7603C95.7908 83.677 95.8253 83.5848 95.8416 83.4886L95.934 83.5847C95.9654 83.1634 96.4218 83.1061 96.3036 82.768C96.4015 83.0156 96.4569 82.5481 96.6103 82.4797C96.5697 82.8105 96.0985 83.1578 96.2518 83.3148C96.3867 83.2409 96.3756 83.0803 96.505 83.0082C96.5253 82.9435 96.5438 82.9029 96.5401 82.9361C96.5384 82.9562 96.5347 82.976 96.529 82.9953L96.505 83.0082C96.471 83.1011 96.4541 83.1994 96.4551 83.2983C96.8247 82.9953 96.7766 82.6442 96.8856 82.3836C96.8062 82.5278 96.7304 82.6737 96.6454 82.8123C96.4976 82.6627 96.7471 82.6146 96.6879 82.4095C96.9171 82.2691 96.893 82.0233 97.0575 81.8958C97.0279 81.9383 97.0409 81.9531 97.0113 81.9956C97.3088 81.5558 97.6617 81.6038 97.7837 81.4283C97.9057 81.2527 98.0387 80.8739 97.8964 80.9552C97.926 80.8259 97.5416 81.5835 97.5139 81.1918C97.9888 81.007 97.8151 80.5006 98.2789 80.1496C98.2087 80.4471 98.5007 80.0812 98.4268 80.3343C98.5191 80.1952 98.5638 80.0299 98.5543 79.8631L98.6762 79.8225C98.7335 79.379 98.5931 79.6636 98.8204 79.0833C98.7686 79.2958 99.044 78.9189 99.0051 79.0833C99.0888 78.9481 99.1482 78.7992 99.1807 78.6435V78.686C99.4565 78.115 99.5245 78.2795 99.7235 77.7307L99.6595 77.7621C99.8995 77.0396 100.432 76.2358 100.709 75.5003L100.565 75.7368C100.66 75.4973 100.771 75.2645 100.898 75.0402C100.879 75.097 100.857 75.1526 100.831 75.2065C100.868 75.2065 100.957 75.1492 101.044 74.9811L101.027 74.8961L101.096 74.8425C101.219 74.5819 100.992 74.8905 101.116 74.63C101.34 74.508 101.63 73.4695 101.811 73.305C101.811 73.0962 101.595 73.8077 101.602 73.5804C101.662 73.493 101.714 73.4002 101.757 73.3032L101.685 73.3456C101.975 72.7511 102.228 72.1389 102.441 71.5126V71.544C102.674 70.8991 102.783 70.5591 102.995 69.8458C103.014 69.892 103.18 69.2767 103.128 69.5372L103.173 69.3414C103.141 69.7017 103.019 70.3041 102.901 70.6792ZM85.4141 93.4524H85.6284C85.5416 93.506 85.4991 93.5337 85.4436 93.5078L85.4141 93.4524ZM103.248 69.2286C103.258 69.1824 103.278 69.0938 103.289 69.0439C103.282 69.0771 103.261 69.1954 103.248 69.2286Z" fill="#ffffff"/>
<path d="M55.5153 55.633L59.0263 54.2896C57.8067 53.8757 56.5852 53.4655 55.3656 53.0497L46.9929 50.1633C45.6754 49.6995 44.356 49.2394 43.0366 48.7793C42.9849 49.912 42.935 51.0429 42.8777 52.1738C42.7835 54.066 42.6929 55.9564 42.5821 57.8486L42.4268 60.6851V60.7405L47.2572 58.8372L55.5153 55.633Z" fill="#ffffff"/>
<path d="M74.7632 64.1886C76.9474 63.3626 79.1279 62.5256 81.3157 61.7069L80.5766 61.463L76.3672 60.0901L72.1651 58.6968C70.478 58.1424 68.7927 57.5714 67.1075 57.0078C66.6196 57.1797 66.1337 57.3552 65.6458 57.5252L57.2897 60.4541L48.9097 63.3479L42.1298 65.6448C41.9358 68.7233 41.727 71.8019 41.4738 74.8841C41.2613 71.9423 41.0858 69.0005 40.9195 66.0587L40.5166 66.1954L35.0303 68.0174L35.1393 70.0815C35.2521 72.1899 35.3481 74.2983 35.4461 76.4086C35.4941 77.4508 35.5434 78.4924 35.5939 79.5333L39.7017 77.8703L46.6941 75.0855C49.0224 74.1505 51.3618 73.2469 53.6956 72.3267C56.0295 71.4064 58.3652 70.4899 60.7065 69.5918L67.7284 66.881L74.7632 64.1886Z" fill="#ffffff"/>
<path d="M40.6842 61.4283L40.6473 60.6781L40.5161 57.8397C40.4255 55.9475 40.3497 54.0553 40.274 52.1631C40.2112 50.6848 40.1594 49.2194 40.1077 47.7467C39.618 47.5748 39.1283 47.4048 38.6405 47.2311C36.9835 46.6398 35.3254 46.0491 33.666 45.459C33.9506 49.4449 34.2037 53.4307 34.4476 57.4166L34.8172 63.7418V63.7714L39.0248 62.0843L40.6842 61.4283Z" fill="#ffffff"/>
<path d="M56.8012 48.5481C60.0436 49.5053 63.2848 50.4681 66.5247 51.4364C68.3726 50.7416 70.2205 50.0461 72.0683 49.3501L76.2131 47.7979L80.9381 46.0535C80.9381 45.8891 80.9381 46.0166 80.9381 45.8539L79.7499 45.4437L76.7601 44.3923L70.7804 42.2931C68.7865 41.5965 66.8001 40.8758 64.8099 40.1681C62.8197 39.4603 60.8314 38.7526 58.845 38.0319L52.8874 35.8662C50.901 35.1492 48.9201 34.4101 46.9391 33.6802L43.7035 32.4883L43.613 35.1529L43.3894 40.824C43.3413 42.0917 43.2859 43.3593 43.2305 44.627C44.9194 45.1111 46.6078 45.594 48.2955 46.0757L56.8012 48.5481Z" fill="#ffffff"/>
<path d="M26.1325 42.7414L23.479 41.7676L23.3866 45.2286L23.2295 50.2419C23.3811 51.9986 23.5277 53.7566 23.6693 55.5157C23.8541 57.9586 24.0537 60.4015 24.2237 62.8462C24.3469 64.534 24.4658 66.2211 24.5803 67.9075L24.6413 67.8817L26.6924 67.0483L30.7966 65.3852L31.5117 65.0988L31.532 63.8053L31.6688 57.4726C31.7741 53.2761 31.8887 49.0796 32.0383 44.8812C31.4581 44.6724 30.876 44.4655 30.2958 44.2548L26.1325 42.7414Z" fill="#ffffff"/>
<path d="M86.815 7.96767C86.815 7.92517 87.1292 8.08778 87.2604 8.07669C87.0756 8.16908 87.2936 8.29104 87.4636 8.22082C87.4877 8.40561 87.4248 8.27441 87.338 8.32985C87.3546 8.49801 87.6928 8.31322 87.5523 8.44442C87.8258 8.47583 87.3103 8.55529 87.6503 8.56638C87.5228 8.77888 88.0291 8.68464 87.8073 8.82693C87.9201 8.74377 88.1566 8.92117 88.1215 9.07639C88.2859 8.90823 88.6112 9.16693 88.2619 9.31292C88.7664 9.22607 88.844 9.56419 89.1748 9.56419C89.0288 9.65659 88.99 10.1722 89.2191 9.75829C89.4039 9.94299 89.3133 10.1759 89.5166 10.0502C89.7605 10.2128 89.6811 10.2479 89.9121 10.1907C90.0765 10.5455 90.0968 10.514 90.4997 10.4364C90.2391 10.6619 90.3389 10.5159 90.3999 10.8282C90.9912 10.7025 90.9044 10.9409 90.5108 10.9354C90.836 11.1201 90.921 11.0148 90.9857 11.2791C91.3294 11.5581 91.1538 11.5673 91.6786 11.3992C91.5677 11.5304 91.1243 11.8926 91.4255 11.5193C91.3238 11.5987 91.1095 11.632 91.298 11.6819C91.3405 11.8667 91.4273 11.6616 91.5105 11.632C91.4255 11.9517 91.4809 11.7577 91.6546 11.7595C91.3127 12.0459 91.8616 11.6745 91.5696 12.0016C91.9798 12.1864 91.9004 12.0422 92.4732 12.1864C91.4181 12.2825 92.1443 12.665 91.9188 12.4543C92.3457 12.2011 92.1905 12.6391 92.1406 12.6391C92.4215 12.9218 92.3365 12.7019 92.6949 12.5079C92.791 12.9384 92.2884 12.8072 92.4991 12.9717C92.695 12.9717 93.0793 13.0308 92.9925 13.4411C93.1403 13.4762 93.0442 13.4725 92.974 13.5076C93.1126 13.5464 93.2604 13.5464 93.0276 13.4355C93.3103 13.2674 93.4692 13.6203 93.6281 13.7293C93.4747 13.9455 93.4193 13.7293 93.3602 13.6684C93.4969 14.0379 94.0882 14.3946 94.0993 14.2578C93.9478 14.2357 93.946 13.9603 93.8961 13.9234C93.7723 14.2116 93.7926 13.7386 93.6928 13.5815C93.3047 13.162 93.1384 12.5596 92.6136 12.1808C92.2441 11.6486 92.2441 11.6837 91.795 11.4546C91.8616 11.3733 90.8323 10.4457 91.0097 10.2295C90.5366 10.357 90.8027 10.2018 90.4313 10.0447C90.1671 9.82479 90.047 9.81739 89.8603 9.56979C89.6903 9.72679 90.1541 8.99693 89.7587 9.324C90.0081 9.0653 89.6293 9.2427 89.5647 9.05237C89.439 9.324 89.3466 8.79736 89.3152 8.93225C88.7922 8.66431 88.5003 8.36865 88.0882 8.00832C87.8535 7.79027 87.6225 7.64983 87.4747 7.94919C87.495 7.63875 87.0867 7.39483 86.7356 7.15276C86.5397 7.23591 83.9915 5.67446 83.3281 5.70957C85.3589 6.90699 86.2939 7.19895 86.815 7.96767Z" fill="#ffffff"/>
<path d="M86.8145 7.96875C86.8145 7.96875 86.8145 7.98945 86.8446 8.01203L86.8145 7.96875Z" fill="#ffffff"/>
<path d="M93.7607 14.2617L93.7847 14.3264C93.7884 14.3097 93.7681 14.2765 93.7607 14.2617Z" fill="#ffffff"/>
<path d="M93.6982 14.0965C93.7075 14.1445 93.7518 14.176 93.7851 14.2055C93.7574 14.1944 93.713 14.0854 93.6982 14.0965Z" fill="#ffffff"/>
<path d="M93.3086 13.7285C93.2882 13.7544 93.2015 13.7729 93.2902 13.7821C93.2828 13.7581 93.2993 13.7489 93.3086 13.7285Z" fill="#ffffff"/>
<path d="M93.2951 13.507L93.2378 13.459C93.1861 13.4774 93.2822 13.5421 93.2951 13.507Z" fill="#ffffff"/>
<path d="M93.0978 13.6402C93.12 13.6402 93.1772 13.679 93.1514 13.6162C93.1255 13.6402 93.0331 13.5774 93.0978 13.6402Z" fill="#ffffff"/>
</svg>
